<svg xmlns="http://www.w3.org/2000/svg" version="1.1" viewBox="-5.0 -10.0 110.0 135.0">
 <path d="m24.656 26.574c-0.49609 0.74219-1.1406 1.3789-1.8828 1.8828 0.74219 0.49609 1.3828 1.1406 1.8828 1.8828 0.50391-0.74219 1.1484-1.3828 1.8906-1.8828-0.74609-0.50781-1.3867-1.1445-1.8906-1.8828zm-2.5039-0.62891c0.82031-0.82422 1.3359-1.957 1.3359-3.2109 0-0.64844 0.52344-1.1719 1.168-1.1719 0.64844 0 1.1719 0.52344 1.1719 1.1719 0 2.4961 2.0469 4.5469 4.5469 4.5469 0.64844 0 1.1719 0.52344 1.1719 1.1719s-0.52344 1.168-1.1719 1.168c-2.4961 0-4.5469 2.0469-4.5469 4.5469 0 0.64844-0.52344 1.1719-1.1719 1.1719-0.64062 0-1.168-0.52344-1.168-1.1719 0-2.4961-2.0469-4.5469-4.5469-4.5469-0.64844 0-1.1719-0.51953-1.1719-1.168s0.52344-1.1719 1.1719-1.1719c1.2461-0.003906 2.3867-0.50781 3.2109-1.3359zm63.875-1.6719c-0.49609 0.74219-1.1406 1.3828-1.8828 1.8828 0.74219 0.49609 1.3828 1.1406 1.8828 1.8828 0.50391-0.74219 1.1406-1.3828 1.8906-1.8828-0.75-0.5-1.3867-1.1406-1.8906-1.8828zm-2.5078-0.625c0.82422-0.82422 1.3398-1.957 1.3398-3.2109 0-0.64844 0.52344-1.168 1.168-1.168 0.64844 0 1.1719 0.51953 1.1719 1.168 0 2.4961 2.0469 4.5469 4.5469 4.5469 0.64844 0 1.1719 0.52344 1.1719 1.1719s-0.52344 1.1719-1.1719 1.1719c-2.4961 0-4.5469 2.043-4.5469 4.5469 0 0.64844-0.52344 1.168-1.1719 1.168-0.64062 0-1.168-0.51953-1.168-1.168 0-2.5-2.0469-4.5469-4.5469-4.5469-0.64844 0-1.1719-0.52344-1.1719-1.1719s0.52344-1.1719 1.1719-1.1719c1.2461 0 2.3867-0.51172 3.207-1.3359zm-8.3164 28.57c-0.50391 0.74219-1.1406 1.3828-1.8828 1.8828 0.74219 0.50391 1.3789 1.1406 1.8828 1.8828 0.49609-0.74219 1.1406-1.3789 1.8828-1.8828-0.74219-0.5-1.3828-1.1445-1.8828-1.8828zm-2.5078-0.62891c0.82422-0.82422 1.3359-1.957 1.3359-3.2031 0-0.64844 0.52344-1.1719 1.1719-1.1719s1.168 0.52344 1.168 1.1719c0 2.4961 2.0469 4.5469 4.5469 4.5469 0.64844 0 1.1719 0.51953 1.1719 1.168 0 0.64844-0.52344 1.1719-1.1719 1.1719-2.4961 0-4.5469 2.0469-4.5469 4.5469 0 0.64844-0.51953 1.1719-1.168 1.1719s-1.1719-0.52344-1.1719-1.1719c0-2.4961-2.0469-4.5469-4.5469-4.5469-0.64844 0-1.1719-0.52344-1.1719-1.1719 0-0.64844 0.52344-1.168 1.1719-1.168 1.25-0.003906 2.3828-0.51953 3.2109-1.3438zm-55.617-8.8906c0.64844 0 1.1719 0.52344 1.1719 1.1719 0 4.5117 3.6953 8.2031 8.2031 8.2031 0.64844 0 1.1719 0.52344 1.1719 1.1719 0 0.64844-0.52344 1.168-1.1719 1.168-4.5117 0-8.2031 3.6992-8.2031 8.2109 0 0.64844-0.52344 1.168-1.1719 1.168s-1.168-0.51953-1.168-1.168c0-4.5117-3.6992-8.2109-8.2109-8.2109-0.64844 0-1.168-0.51953-1.168-1.168 0-0.64844 0.51953-1.1719 1.168-1.1719 4.5117 0 8.2109-3.6953 8.2109-8.2031-0.003906-0.64453 0.51953-1.1719 1.168-1.1719zm0 5.9883c-1.0078 1.9531-2.6094 3.5508-4.5547 4.5625 1.9492 1.0078 3.5508 2.6094 4.5547 4.5547 1.0156-1.9492 2.6094-3.5508 4.5625-4.5547-1.957-1.0117-3.5508-2.6055-4.5625-4.5625zm50.227-8.7031c-1.832-0.011719-3.7148-0.40234-5.543-1.1797-0.25-0.10547-0.49609-0.21875-0.75-0.34375-0.59375-0.14453-1.207-0.18359-1.8125-0.11719-0.625 0.070312-1.2461 0.25781-1.8164 0.5625-0.57812 0.29688-1.2812 0.085938-1.5859-0.48828-0.29688-0.57812-0.078125-1.2812 0.49219-1.5859 0.42969-0.22656 0.88281-0.41016 1.3438-0.54688-2.6953-2.2109-4.7422-5.1641-5.9219-8.3516-1.1641 3.1641-3.1953 6.0938-5.8633 8.2969 0.51953 0.14453 1.0234 0.34375 1.5078 0.59766 0.57031 0.30469 0.78906 1.0078 0.48828 1.5859-0.29688 0.57031-1.0078 0.78906-1.5781 0.48828-1.5-0.78906-3.3125-0.78906-4.8047 0-0.10938 0.054687-0.22656 0.09375-0.33594 0.11719-1.6484 0.625-3.3359 0.94531-4.9883 0.95703 0 1.4375 0.066406 2.8125 0.19531 4.1172 0.007813 0.046875 0.011719 0.10547 0.015625 0.16016 0.65625 6.5938 2.8203 11.5 5.7109 14.719 0.054687 0.046875 0.10938 0.10938 0.15625 0.17188 0.92188 0.99219 1.9062 1.8164 2.9375 2.4805 4.1172 2.6289 9.0078 2.6289 13.125 0 1.1406-0.73047 2.2305-1.6641 3.2227-2.7969 0.050781-0.066406 0.10156-0.125 0.15625-0.18359 2.7578-3.2266 4.8008-8.0312 5.4375-14.414 0.12109-1.5508 0.21094-2.5117 0.21094-4.2461zm-33.504-0.58984c-0.10547-0.16016-0.17188-0.34375-0.1875-0.54297-0.11719-1.2812-0.085937-2.5938 0.085938-3.9141-3.5703-2.2969-3.457 4.9219 0.17188 7.6094-0.050782-1.0234-0.082032-2.0742-0.070313-3.1523zm0.38672-6.8477 0.44922-1.4453c0.10547-11.832 4.4219-19.469 9.9375-22.867 4.4922-2.7656 9.7773-2.7656 14.262 0 5.5312 3.4102 9.8594 11.051 9.9648 22.867 0.015625 0.050782 0.03125 0.09375 0.050781 0.14453 0.16016 0.47656 0.3125 0.95312 0.4375 1.4336 2.7031-1.3828 5.2734 0.066406 5.6641 3.2734 0.4375 3.6016-2.1094 8.5547-5.6367 9.4141-0.76562 6.3008-2.8633 11.164-5.6758 14.566v4.1172h2.0586c6.1406 0 11.734 2.3086 15.801 6.0312 4.0938 3.7422 6.6328 8.9062 6.6328 14.602l-0.015624 10.523c-0.011719 0.67969-0.52344 1.1875-1.1719 1.1875h-12.828v-0.007812l-0.14453 0.007812-44.199-0.003906v-0.007813l-12.988 0.007813c-0.64844 0-1.1719-0.52344-1.1719-1.1719l-0.003906-12.387c0-11.789 7.8008-18.785 19.672-18.785h4.8281v-3.7539c-2.9766-3.4453-5.2109-8.4492-5.9961-15.02-3.3828-1.0938-5.7461-5.8359-5.3203-9.3242 0.37109-3.0586 2.7656-4.5664 5.3945-3.4023zm3.1172-6.4688c0.83984-1.1484 1.8047-2.2031 2.8672-3.1328l-0.14844-5.6133c0-0.20312 0.015624-0.41406 0.046874-0.63281-1.3086 2.5352-2.2812 5.6641-2.7656 9.3789zm5.1562-4.8359c0.75-0.46875 1.5156-0.86719 2.293-1.1953 2.2969-0.97656 4.6953-1.3516 6.9648-1.1094 2.2734-0.24219 4.6719 0.13281 6.9688 1.1094 0.71484 0.30469 1.418 0.66406 2.1094 1.0859l-0.3125-3.7031c-0.046875-0.57031-0.29688-1.2812-0.69531-1.8047-0.51953-0.69141-0.91016-0.67969-1.4609 0.054688-0.375 0.49609-0.61719 1.1484-0.61719 1.6562 0 0.64062-0.52344 1.168-1.1719 1.168-0.64844 0-1.168-0.52344-1.168-1.168 0-0.86719-0.78516-2.2266-1.3906-2.2266-0.59766 0-1.3828 1.3555-1.3828 2.2266 0 0.64062-0.52344 1.168-1.1719 1.168-0.64844 0-1.168-0.52344-1.168-1.168 0-0.86719-0.78906-2.2266-1.3906-2.2266-0.59766 0-1.3828 1.3555-1.3828 2.2266 0 0.64062-0.52344 1.168-1.1719 1.168s-1.168-0.52344-1.168-1.168c0-0.86719-0.78516-2.2266-1.3906-2.2266-0.59766 0-1.3828 1.3555-1.3828 2.2266zm20.836 1.7305c1.0469 0.92188 2 1.9688 2.8281 3.1016-1.0469-8.0391-4.4141-13.32-8.5156-15.852-5.2539-3.2383-11.141-1.75-15.102 2.8398 1.4062-0.69531 2.8281-0.125 3.7969 1.0938 1.4844-1.8594 3.6367-1.8594 5.1172 0 1.4844-1.8594 3.6367-1.8594 5.1172 0 1.4844-1.8672 3.6602-1.875 5.1172 0.054688 0.66406 0.875 1.0898 2.0625 1.168 3.0156zm6.4609 12.16c0.15625 1.2578 0.17969 2.5 0.066407 3.7188-0.015625 0.19922-0.085938 0.38281-0.19531 0.54297 0.015625 1.1562-0.011718 2.2734-0.078125 3.3594 1.9648-1.2031 3.3477-4.2812 3.0703-6.5273-0.24219-2.0312-1.5273-2.1172-2.8633-1.0938zm-7.0781 1.5195c1.6094 0.6875 3.2734 1.0195 4.875 0.99219 0.09375-4.207-1.6016-8.4453-4.4453-11.582-2.625-2.8984-6.3125-4.9297-10.219-4.8555-0.14062 6.3828 3.8867 12.941 9.7891 15.445zm-26.797 0.99219c3.8867 0.070313 7.5898-1.9531 10.219-4.8555 2.8672-3.1719 4.5391-7.4062 4.4453-11.582-6.2422-0.10938-11.727 4.9727-13.75 10.805-0.63281 1.8086-0.95703 3.7344-0.91406 5.6328zm10.312 4.0469c0.57031-0.29688 1.2812-0.085937 1.5781 0.49219 0.29687 0.57031 0.085937 1.2812-0.48828 1.5781-0.92578 0.48828-1.9219 0.76953-2.9336 0.84766l-0.58594 1.5508c-0.22656 0.60156-0.90234 0.91016-1.5078 0.67969-0.60156-0.22656-0.91016-0.90234-0.67969-1.5078l0.35156-0.94141c-0.21875-0.054687-0.4375-0.12109-0.65234-0.19922l-0.88672 1.3359c-0.35938 0.53906-1.0859 0.67969-1.625 0.32031s-0.67969-1.0859-0.32031-1.625l1.4062-2.1016c0.31641-0.52344 0.99219-0.71484 1.5391-0.42578 1.5234 0.80469 3.2891 0.79688 4.8047-0.003906zm9.957 2.0703c-0.57031-0.29688-0.78906-1.0078-0.48828-1.5781 0.29688-0.57812 1.0078-0.78906 1.5781-0.49219 1.5 0.78906 3.3047 0.78906 4.8047 0 0.53906-0.28125 1.1875-0.10547 1.5156 0.38672l1.4297 2.1562c0.35156 0.53906 0.20312 1.2617-0.33203 1.625-0.53906 0.35156-1.2617 0.20312-1.625-0.33203l-0.88281-1.3281c-0.21875 0.078125-0.4375 0.14453-0.65625 0.19922l0.35938 0.94141c0.22656 0.60156-0.078125 1.2812-0.67969 1.5078-0.60156 0.22656-1.2812-0.078125-1.5078-0.67969l-0.59375-1.5508c-1.0039-0.085938-1.9961-0.36719-2.9219-0.85547zm-5.2773 1.0977c0.24219-0.59766 0.92578-0.88672 1.5234-0.63672 0.59766 0.24219 0.88281 0.92578 0.63672 1.5234l-1.3516 3.2734 1.7578 0.33594c0.63281 0.11719 1.0469 0.73047 0.92578 1.3672-0.12109 0.63281-0.73047 1.0547-1.3672 0.92969l-3.1641-0.60938c-0.71484-0.14062-1.1406-0.91406-0.86328-1.5938zm0.99609 23.891c0.64844 0 1.1719 0.51953 1.1719 1.168 0 0.96094 0.36719 1.8516 0.96875 2.5195 4.0078-1.0742 6.6094-4.9453 6.3672-9.0781-0.007812-0.12109 0.007813-0.23828 0.03125-0.35156-5.2031 3.8281-11.734 3.9414-17.047 0.24219v0.10547c-0.24219 4.1328 2.3594 8 6.3594 9.0781 0.60156-0.67188 0.96875-1.5547 0.96875-2.5195 0.007813-0.64844 0.53516-1.1641 1.1797-1.1641zm5.1758 4.9609c1.3672 0.28125 1.168 2.3203-0.23828 2.3203-2.0625 0-3.7656 1.6992-3.7656 3.7695 0 0.64844-0.52344 1.1719-1.1719 1.1719-0.64844 0-1.1719-0.52344-1.1719-1.1719 0-2.0703-1.6953-3.7695-3.7656-3.7695-1.4062 0-1.6055-2.043-0.23438-2.3203-2.7891-1.5508-4.7266-4.2344-5.4141-7.3164h-6.0078c-10.57 0-17.324 5.9297-17.324 16.438v11.211h9.7578c-0.84766-1.8516-1.3594-3.8086-1.3594-5.8086 0-2.9453 1.5391-5.5859 4.0234-7.4844 2.4609-1.8711 5.7109-2.9453 9.3984-2.957 5.5742-0.015625 9.0195 1.8828 12.098 6.0703 3.1406-4.2656 6.5352-6.0547 12.18-6.0703 3.6211 0 6.9141 1.1289 9.3203 2.957 2.4844 1.8984 4.0312 4.5391 4.0312 7.4844 0 2-0.51953 3.9609-1.3672 5.8086h9.7578v-9.3672c0-5.0078-2.2422-9.5703-5.8594-12.879-3.6484-3.3359-8.6797-5.4062-14.227-5.4062h-3.2383c-0.69141 3.0781-2.6289 5.7656-5.4219 7.3203zm-5.1758-0.20313c-0.375 0.51563-0.82812 0.97656-1.3516 1.3516 0.51953 0.375 0.97656 0.82812 1.3516 1.3516 0.375-0.51953 0.83594-0.97656 1.3516-1.3516-0.51172-0.38281-0.97266-0.83594-1.3516-1.3516zm-5.0508-18.43c-0.32031-0.55859-0.13281-1.2734 0.42578-1.6016 0.55859-0.32031 1.2734-0.13281 1.6016 0.42578 1.1484 1.9844 4.9102 1.9844 6.0625 0 0.32031-0.55859 1.0352-0.75 1.5938-0.42578 0.55859 0.32813 0.75 1.0391 0.42578 1.6016-2.0508 3.5312-8.0586 3.5391-10.109 0zm26.461 38.965c0.97656-1.8359 1.6172-3.7695 1.6172-5.8086 0-2.1758-1.1797-4.1641-3.0859-5.625-1.9883-1.5234-4.7422-2.4688-7.8125-2.4766-5.4844 0-8.2891 2.0273-11.148 6.4141-0.46094 0.71094-1.5 0.71484-1.9688-0.011719-1.3203-2.0586-2.8672-3.8047-4.5625-4.8359-1.7031-1.0391-3.7812-1.5625-6.5781-1.5664-3.0625 0.007813-5.8242 0.95313-7.8125 2.4766-1.9062 1.4609-3.0859 3.4492-3.0859 5.625 0 2.0391 0.64062 3.9688 1.6172 5.8086z"/>
<text x="0.0" y="117.5" font-size="5.0" font-weight="bold" font-family="Arbeit Regular, Helvetica, Arial-Unicode, Arial, Sans-serif" fill="#000000">Created by monibag</text><text x="0.0" y="122.5" font-size="5.0" font-weight="bold" font-family="Arbeit Regular, Helvetica, Arial-Unicode, Arial, Sans-serif" fill="#000000">from Noun Project</text></svg>